<svg width="60" height="60" viewBox="0 0 60 60" fill="none" xmlns="http://www.w3.org/2000/svg">
<circle cx="30.0001" cy="30" r="30" fill="#F4F7FE"/>
<path d="M16.0001 33.1812C16.0001 30.3705 16.7036 27.7387 18.1106 25.2857C19.5698 22.7816 21.55 20.6864 24.0513 19L28.3505 22.3728C27.0477 23.0372 25.7971 24.0848 24.5985 25.5157C23.3999 26.9466 22.6183 28.3264 22.2535 29.6551C22.4619 29.5017 22.9831 29.4251 23.8168 29.4251C25.3281 29.4251 26.5787 29.9361 27.5689 30.9582C28.6111 31.9803 29.1322 33.3089 29.1322 34.9443C29.1322 36.5796 28.5069 38.0105 27.2562 39.2369C26.0576 40.4123 24.6246 41 22.957 41C21.0289 41 19.3874 40.3101 18.0325 38.9303C16.6776 37.4994 16.0001 35.583 16.0001 33.1812ZM31.9462 33.1812C31.9462 30.3705 32.6497 27.7387 34.0567 25.2857C35.5158 22.7816 37.47 20.6864 39.9193 19L44.2966 22.3728C42.9938 23.0372 41.7171 24.0848 40.4664 25.5157C39.2679 26.9466 38.5123 28.3264 38.1996 29.6551C38.408 29.5017 38.9291 29.4251 39.7629 29.4251C41.222 29.4251 42.4467 29.9361 43.4368 30.9582C44.479 31.9803 45.0001 33.3089 45.0001 34.9443C45.0001 36.5796 44.4008 38.0105 43.2023 39.2369C42.0037 40.4123 40.5446 41 38.8249 41C36.8968 41 35.2553 40.3101 33.9004 38.9303C32.5976 37.4994 31.9462 35.583 31.9462 33.1812Z" fill="#5E88F3"/>
</svg>
